<?xml version="1.0" encoding="iso-8859-1"?>
<!-- Generator: Adobe Illustrator 16.0.0, SVG Export Plug-In . SVG Version: 6.00 Build 0)  -->
<!DOCTYPE svg PUBLIC "-//W3C//DTD SVG 1.1//EN" "http://www.w3.org/Graphics/SVG/1.1/DTD/svg11.dtd">
<svg version="1.1" id="Capa_1" xmlns="http://www.w3.org/2000/svg" xmlns:xlink="http://www.w3.org/1999/xlink" x="0px" y="0px"
	 width="451.59px" height="451.59px" viewBox="0 0 451.59 451.59" style="enable-background:new 0 0 451.59 451.59;"
	 xml:space="preserve">
<g>
	<g id="Layer_3_3_">
		<path d="M421.744,277.509l-58.997,15.81l-22.876-13.207l39.68-10.633c5.335-1.431,8.501-6.914,7.071-12.248
			c-1.429-5.334-6.915-8.502-12.247-7.07l-58.999,15.809l-24.615-14.211c3.222-8.034,5.015-16.79,5.015-25.962
			c0-9.171-1.791-17.927-5.015-25.96l24.617-14.213l58.999,15.808c0.867,0.232,1.737,0.344,2.594,0.344
			c4.415-0.001,8.456-2.947,9.653-7.415c1.43-5.335-1.736-10.818-7.071-12.247l-39.68-10.632l22.875-13.207l58.997,15.808
			c0.867,0.232,1.736,0.344,2.594,0.344c4.415-0.001,8.456-2.947,9.653-7.415c1.43-5.334-1.736-10.817-7.071-12.247l-39.679-10.632
			l30.437-17.572c4.783-2.762,6.422-8.877,3.66-13.66c-2.761-4.781-8.877-6.422-13.66-3.66l-30.437,17.573l10.631-39.679
			c1.43-5.335-1.736-10.818-7.071-12.247c-5.335-1.429-10.816,1.737-12.247,7.071l-15.807,58.996l-22.876,13.208l10.632-39.681
			c1.43-5.334-1.736-10.817-7.071-12.247c-5.338-1.43-10.816,1.736-12.247,7.071l-15.809,58.999l-24.643,14.227
			c-10.869-13.772-26.784-23.377-44.939-25.987V128.13l43.188-43.19c3.905-3.905,3.905-10.237,0-14.143
			c-3.905-3.904-10.235-3.904-14.143,0l-29.046,29.046V73.431l43.189-43.19c3.904-3.905,3.904-10.237,0-14.143
			c-3.906-3.904-10.236-3.904-14.144,0l-29.046,29.048V10c0-5.522-4.478-10-10-10c-5.521,0-10,4.478-10,10v35.146L186.748,16.1
			c-3.906-3.904-10.236-3.904-14.143,0c-3.905,3.905-3.905,10.237,0,14.143l43.189,43.188v26.412l-29.047-29.046
			c-3.906-3.904-10.236-3.904-14.143,0c-3.905,3.905-3.905,10.237,0,14.143l43.189,43.188v28.414
			c-18.153,2.61-34.068,12.215-44.938,25.986L146.213,168.3l-15.81-58.998c-1.43-5.336-6.916-8.502-12.247-7.071
			c-5.335,1.43-8.501,6.913-7.071,12.247l10.633,39.68l-22.875-13.206L83.034,81.955c-1.43-5.336-6.915-8.503-12.247-7.071
			c-5.335,1.43-8.501,6.913-7.071,12.247l10.633,39.68l-30.438-17.573c-4.784-2.762-10.899-1.122-13.66,3.66
			c-2.762,4.783-1.123,10.898,3.66,13.66l30.437,17.573l-39.677,10.632c-5.335,1.43-8.501,6.913-7.071,12.247
			c1.197,4.469,5.237,7.415,9.653,7.415c0.856,0,1.728-0.111,2.594-0.344l58.996-15.809l22.876,13.207l-39.679,10.633
			c-5.335,1.43-8.501,6.913-7.071,12.247c1.197,4.469,5.237,7.415,9.653,7.415c0.856,0,1.728-0.111,2.594-0.344l58.998-15.809
			l24.616,14.212c-3.223,8.033-5.014,16.789-5.014,25.961c0,9.171,1.791,17.927,5.014,25.96l-24.617,14.213l-58.999-15.808
			c-5.336-1.429-10.817,1.737-12.247,7.071c-1.43,5.334,1.736,10.816,7.071,12.246l39.68,10.633l-22.876,13.207L29.845,277.51
			c-5.337-1.431-10.817,1.737-12.247,7.071c-1.43,5.335,1.736,10.817,7.071,12.247l39.679,10.632l-30.437,17.571
			c-4.783,2.763-6.422,8.878-3.66,13.66c1.853,3.209,5.213,5.002,8.67,5.002c1.696,0,3.416-0.433,4.99-1.342l30.438-17.572
			l-10.632,39.679c-1.43,5.334,1.736,10.817,7.071,12.247c0.867,0.231,1.737,0.344,2.594,0.344c4.415,0,8.456-2.947,9.653-7.415
			l15.808-58.996l22.876-13.208l-10.632,39.682c-1.43,5.334,1.736,10.816,7.071,12.246c0.867,0.232,1.737,0.345,2.594,0.345
			c4.415,0,8.456-2.947,9.653-7.415l15.808-58.998l24.643-14.229c10.869,13.772,26.784,23.377,44.938,25.987v28.413l-43.188,43.191
			c-3.905,3.904-3.905,10.236,0,14.143c1.953,1.952,4.512,2.929,7.07,2.929c2.56,0,5.118-0.977,7.071-2.929l29.047-29.049v26.414
			l-43.188,43.188c-3.905,3.905-3.905,10.237,0,14.144c1.953,1.952,4.512,2.929,7.07,2.929c2.56,0,5.118-0.977,7.071-2.929
			l29.046-29.047v35.145c0,5.522,4.479,10,10,10c5.522,0,10-4.478,10-10v-35.146l29.047,29.046c3.906,3.903,10.236,3.903,14.144,0
			c3.904-3.905,3.904-10.237,0-14.144l-43.19-43.187v-26.414l29.048,29.047c3.906,3.904,10.236,3.904,14.144,0
			c3.904-3.905,3.904-10.237,0-14.143l-43.191-43.189v-28.413c18.155-2.61,34.07-12.215,44.939-25.985l24.643,14.228l15.811,58.999
			c1.197,4.468,5.237,7.414,9.653,7.414c0.856-0.001,1.729-0.111,2.595-0.344c5.334-1.431,8.5-6.914,7.07-12.248l-10.633-39.68
			l22.875,13.207l15.809,58.996c1.197,4.469,5.237,7.415,9.653,7.415c0.856-0.001,1.728-0.11,2.594-0.344
			c5.335-1.43,8.501-6.913,7.071-12.247l-10.633-39.68l30.437,17.572c1.575,0.909,3.294,1.342,4.99,1.342
			c3.456,0,6.818-1.793,8.67-5.002c2.762-4.782,1.123-10.897-3.66-13.66l-30.437-17.571l39.678-10.633
			c5.335-1.431,8.501-6.913,7.071-12.247C432.562,279.245,427.078,276.078,421.744,277.509z M225.795,275.773
			c-27.559,0-49.979-22.42-49.979-49.979c0-27.559,22.42-49.979,49.979-49.979c27.56,0,49.979,22.42,49.979,49.979
			C275.774,253.354,253.354,275.773,225.795,275.773z"/>
	</g>
</g>
<g>
</g>
<g>
</g>
<g>
</g>
<g>
</g>
<g>
</g>
<g>
</g>
<g>
</g>
<g>
</g>
<g>
</g>
<g>
</g>
<g>
</g>
<g>
</g>
<g>
</g>
<g>
</g>
<g>
</g>
</svg>
